<svg width="153" height="29" viewBox="0 0 153 29" fill="none" xmlns="http://www.w3.org/2000/svg">
<path d="M13.6667 1.25589C14.0623 0.65971 14.9377 0.65971 15.3333 1.25589L19.3225 7.26837C19.4554 7.46864 19.6559 7.61435 19.8875 7.67884L26.8384 9.61486C27.5276 9.80683 27.7982 10.6394 27.3534 11.1998L22.8679 16.8518C22.7185 17.04 22.6419 17.2758 22.6521 17.5159L22.9588 24.7249C22.9892 25.4398 22.281 25.9543 21.6106 25.7045L14.8492 23.1851C14.624 23.1012 14.376 23.1012 14.1508 23.1851L7.38943 25.7045C6.719 25.9543 6.01077 25.4398 6.04118 24.7249L6.34787 17.5159C6.35809 17.2758 6.28148 17.04 6.13208 16.8518L1.64661 11.1998C1.20184 10.6394 1.47236 9.80683 2.1616 9.61486L9.11255 7.67884C9.34407 7.61435 9.54463 7.46864 9.6775 7.26837L13.6667 1.25589Z" fill="#DB281C"/>
<path d="M44.6667 1.25589C45.0623 0.65971 45.9377 0.65971 46.3333 1.25589L50.3225 7.26837C50.4554 7.46864 50.6559 7.61435 50.8875 7.67884L57.8384 9.61486C58.5276 9.80683 58.7982 10.6394 58.3534 11.1998L53.8679 16.8518C53.7185 17.04 53.6419 17.2758 53.6521 17.5159L53.9588 24.7249C53.9892 25.4398 53.281 25.9543 52.6106 25.7045L45.8492 23.1851C45.624 23.1012 45.376 23.1012 45.1508 23.1851L38.3894 25.7045C37.719 25.9543 37.0108 25.4398 37.0412 24.7249L37.3479 17.5159C37.3581 17.2758 37.2815 17.04 37.1321 16.8518L32.6466 11.1998C32.2018 10.6394 32.4724 9.80683 33.1616 9.61486L40.1125 7.67884C40.3441 7.61435 40.5446 7.46864 40.6775 7.26837L44.6667 1.25589Z" fill="#DB281C"/>
<path d="M75.6667 1.25589C76.0623 0.65971 76.9377 0.65971 77.3333 1.25589L81.3225 7.26837C81.4554 7.46864 81.6559 7.61435 81.8875 7.67884L88.8384 9.61486C89.5276 9.80683 89.7982 10.6394 89.3534 11.1998L84.8679 16.8518C84.7185 17.04 84.6419 17.2758 84.6521 17.5159L84.9588 24.7249C84.9892 25.4398 84.281 25.9543 83.6106 25.7045L76.8492 23.1851C76.624 23.1012 76.376 23.1012 76.1508 23.1851L69.3894 25.7045C68.719 25.9543 68.0108 25.4398 68.0412 24.7249L68.3479 17.5159C68.3581 17.2758 68.2815 17.04 68.1321 16.8518L63.6466 11.1998C63.2018 10.6394 63.4724 9.80683 64.1616 9.61486L71.1125 7.67884C71.3441 7.61435 71.5446 7.46864 71.6775 7.26837L75.6667 1.25589Z" fill="#DB281C"/>
<path d="M106.667 1.25589C107.062 0.65971 107.938 0.65971 108.333 1.25589L112.322 7.26837C112.455 7.46864 112.656 7.61435 112.887 7.67884L119.838 9.61486C120.528 9.80683 120.798 10.6394 120.353 11.1998L115.868 16.8518C115.719 17.04 115.642 17.2758 115.652 17.5159L115.959 24.7249C115.989 25.4398 115.281 25.9543 114.611 25.7045L107.849 23.1851C107.624 23.1012 107.376 23.1012 107.151 23.1851L100.389 25.7045C99.719 25.9543 99.0108 25.4398 99.0412 24.7249L99.3479 17.5159C99.3581 17.2758 99.2815 17.04 99.1321 16.8518L94.6466 11.1998C94.2018 10.6394 94.4724 9.80683 95.1616 9.61486L102.113 7.67884C102.344 7.61435 102.545 7.46864 102.678 7.26837L106.667 1.25589Z" fill="#DB281C"/>
<path d="M137.667 1.25589C138.062 0.65971 138.938 0.65971 139.333 1.25589L143.322 7.26837C143.455 7.46864 143.656 7.61435 143.887 7.67884L150.838 9.61486C151.528 9.80683 151.798 10.6394 151.353 11.1998L146.868 16.8518C146.719 17.04 146.642 17.2758 146.652 17.5159L146.959 24.7249C146.989 25.4398 146.281 25.9543 145.611 25.7045L138.849 23.1851C138.624 23.1012 138.376 23.1012 138.151 23.1851L131.389 25.7045C130.719 25.9543 130.011 25.4398 130.041 24.7249L130.348 17.5159C130.358 17.2758 130.281 17.04 130.132 16.8518L125.647 11.1998C125.202 10.6394 125.472 9.80683 126.162 9.61486L133.113 7.67884C133.344 7.61435 133.545 7.46864 133.678 7.26837L137.667 1.25589Z" fill="#DB281C"/>
</svg>
